name Walk2.mot
datacolumns 19
datarows 20
range 1.20600000 1.22500000
endheader

                time	   L_ground_force_vx	   L_ground_force_vy	   L_ground_force_vz	   L_ground_force_px	   L_ground_force_py	   L_ground_force_pz	   R_ground_force_vx	   R_ground_force_vy	   R_ground_force_vz	   R_ground_force_px	   R_ground_force_py	   R_ground_force_pz	   L_ground_torque_x	   L_ground_torque_y	   L_ground_torque_z	   R_ground_torque_x	   R_ground_torque_y	   R_ground_torque_z	
          1.20600000	          0.00000000	          0.00000000	          0.00000000	          0.00000000	          0.00000000	          0.00000000	          0.00000000	          0.00000000	          0.00000000	          0.00000000	          0.00000000	          0.00000000	          0.00000000	          0.00000000	          0.00000000	          0.00000000	          0.00000000	          0.00000000	
          1.20700000	          0.00000000	          0.00000000	          0.00000000	          0.00000000	          0.00000000	          0.00000000	          0.00000000	          0.00000000	          0.00000000	          0.00000000	          0.00000000	          0.00000000	          0.00000000	          0.00000000	          0.00000000	          0.00000000	          0.00000000	          0.00000000	
          1.20800000	          0.00000000	          0.00000000	          0.00000000	          0.00000000	          0.00000000	          0.00000000	          0.00000000	          0.00000000	          0.00000000	          0.00000000	          0.00000000	          0.00000000	          0.00000000	          0.00000000	          0.00000000	          0.00000000	          0.00000000	          0.00000000	
          1.20900000	          0.00000000	          0.00000000	          0.00000000	          0.00000000	          0.00000000	          0.00000000	          0.00000000	          0.00000000	          0.00000000	          0.00000000	          0.00000000	          0.00000000	          0.00000000	          0.00000000	          0.00000000	          0.00000000	          0.00000000	          0.00000000	
          1.21000000	          0.00000000	          0.00000000	          0.00000000	          0.00000000	          0.00000000	          0.00000000	          0.00000000	          0.00000000	          0.00000000	          0.00000000	          0.00000000	          0.00000000	          0.00000000	          0.00000000	          0.00000000	          0.00000000	          0.00000000	          0.00000000	
          1.21100000	          0.00000000	          0.00000000	          0.00000000	          0.00000000	          0.00000000	          0.00000000	          0.00000000	          0.00000000	          0.00000000	          0.00000000	          0.00000000	          0.00000000	          0.00000000	          0.00000000	          0.00000000	          0.00000000	          0.00000000	          0.00000000	
          1.21200000	         -4.08316612	         18.01894774	          2.74685230	         -0.40297015	          0.00000000	         -0.04413021	          0.00000000	          0.00000000	          0.00000000	          0.00000000	          0.00000000	          0.00000000	          0.00000000	          0.19941905	          0.00000000	          0.00000000	          0.00000000	          0.00000000	
          1.21300000	         -5.79939992	         30.19777931	          3.65830504	         -0.41634265	          0.00000000	         -0.04886760	          0.00000000	          0.00000000	          0.00000000	          0.00000000	          0.00000000	          0.00000000	          0.00000000	          0.21947433	          0.00000000	          0.00000000	          0.00000000	          0.00000000	
          1.21400000	         -7.94967364	         49.70067523	          4.53884272	         -0.42562260	          0.00000000	         -0.05387043	          0.00000000	          0.00000000	          0.00000000	          0.00000000	          0.00000000	          0.00000000	          0.00000000	          0.25676395	          0.00000000	          0.00000000	          0.00000000	          0.00000000	
          1.21500000	        -10.67285686	         80.55502240	          5.30622543	         -0.43109285	          0.00000000	         -0.05792811	          0.00000000	          0.00000000	          0.00000000	          0.00000000	          0.00000000	          0.00000000	          0.00000000	          0.33064409	          0.00000000	          0.00000000	          0.00000000	          0.00000000	
          1.21600000	        -13.94069854	        126.65633201	          5.75343002	         -0.43389937	          0.00000000	         -0.06041566	          0.00000000	          0.00000000	          0.00000000	          0.00000000	          0.00000000	          0.00000000	          0.00000000	          0.44307757	          0.00000000	          0.00000000	          0.00000000	          0.00000000	
          1.21700000	        -17.47038336	        190.15834333	          5.48987433	         -0.43514607	          0.00000000	         -0.06153999	          0.00000000	          0.00000000	          0.00000000	          0.00000000	          0.00000000	          0.00000000	          0.00000000	          0.57685020	          0.00000000	          0.00000000	          0.00000000	          0.00000000	
          1.21800000	        -20.75433942	        269.69113283	          3.96426616	         -0.43554413	          0.00000000	         -0.06179613	          0.00000000	          0.00000000	          0.00000000	          0.00000000	          0.00000000	          0.00000000	          0.00000000	          0.69972016	          0.00000000	          0.00000000	          0.00000000	          0.00000000	
          1.21900000	        -23.26588113	        359.44815052	          0.59244090	         -0.43551401	          0.00000000	         -0.06159969	          0.00000000	          0.00000000	          0.00000000	          0.00000000	          0.00000000	          0.00000000	          0.00000000	          0.77889008	          0.00000000	          0.00000000	          0.00000000	          0.00000000	
          1.22000000	        -24.75067720	        450.17977455	         -5.01894272	         -0.43531275	          0.00000000	         -0.06122622	          0.00000000	          0.00000000	          0.00000000	          0.00000000	          0.00000000	          0.00000000	          0.00000000	          0.79829625	          0.00000000	          0.00000000	          0.00000000	          0.00000000	
          1.22100000	        -25.37428361	        531.89431107	        -12.86599959	         -0.43508001	          0.00000000	         -0.06083221	          0.00000000	          0.00000000	          0.00000000	          0.00000000	          0.00000000	          0.00000000	          0.00000000	          0.76599608	          0.00000000	          0.00000000	          0.00000000	          0.00000000	
          1.22200000	        -25.62203410	        596.78806466	        -22.51231001	         -0.43485505	          0.00000000	         -0.06047989	          0.00000000	          0.00000000	          0.00000000	          0.00000000	          0.00000000	          0.00000000	          0.00000000	          0.70249585	          0.00000000	          0.00000000	          0.00000000	          0.00000000	
          1.22300000	        -26.06148363	        640.95747324	        -33.23747546	         -0.43461766	          0.00000000	         -0.06017520	          0.00000000	          0.00000000	          0.00000000	          0.00000000	          0.00000000	          0.00000000	          0.00000000	          0.62281563	          0.00000000	          0.00000000	          0.00000000	          0.00000000	
          1.22400000	        -27.13895430	        664.50988039	        -44.24727255	         -0.43434648	          0.00000000	         -0.05990501	          0.00000000	          0.00000000	          0.00000000	          0.00000000	          0.00000000	          0.00000000	          0.00000000	          0.53661624	          0.00000000	          0.00000000	          0.00000000	          0.00000000	
          1.22500000	        -29.08670229	        670.60870388	        -54.83460093	         -0.43404762	          0.00000000	         -0.05965103	          0.00000000	          0.00000000	          0.00000000	          0.00000000	          0.00000000	          0.00000000	          0.00000000	          0.45449625	          0.00000000	          0.00000000	          0.00000000	          0.00000000	
